<svg width="46" height="44" viewBox="0 0 46 44" fill="none" xmlns="http://www.w3.org/2000/svg">
<path d="M46 41.8C46 42.3835 45.7577 42.9431 45.3263 43.3556C44.895 43.7682 44.31 44 43.7 44H2.3C1.69 44 1.10499 43.7682 0.673654 43.3556C0.242321 42.9431 0 42.3835 0 41.8L0 2.2C0 1.61652 0.242321 1.05695 0.673654 0.644365C1.10499 0.231785 1.69 0 2.3 0L43.7 0C44.31 0 44.895 0.231785 45.3263 0.644365C45.7577 1.05695 46 1.61652 46 2.2V41.8Z" fill="#EBEDED"/>
<path d="M43.7 42.68H2.3C1.69 42.68 1.10499 42.4482 0.673654 42.0356C0.242321 41.6231 0 41.0635 0 40.48L0 41.8C0 42.3835 0.242321 42.9431 0.673654 43.3556C1.10499 43.7682 1.69 44 2.3 44H43.7C44.31 44 44.895 43.7682 45.3263 43.3556C45.7577 42.9431 46 42.3835 46 41.8V40.48C46 41.0635 45.7577 41.6231 45.3263 42.0356C44.895 42.4482 44.31 42.68 43.7 42.68Z" fill="#D4D7DA"/>
<path d="M0 13.64V2.2C0 1.61652 0.242321 1.05695 0.673654 0.644365C1.10499 0.231785 1.69 0 2.3 0L43.7 0C44.31 0 44.895 0.231785 45.3263 0.644365C45.7577 1.05695 46 1.61652 46 2.2V13.64H0Z" fill="#E64C3C"/>
<path d="M0 12.32H46V13.53H0V12.32Z" fill="#C03A2B"/>
<path d="M13.9582 3.77344L15.1874 7.22964H15.2021L16.365 3.77344H17.9915V8.8H16.9096V5.23776H16.8949L15.6069 8.8H14.7163L13.4283 5.27296H13.4136V8.8H12.3317V3.77344H13.9582ZM19.0366 5.69536C19.1443 5.54004 19.2818 5.41596 19.4488 5.3218C19.6234 5.22525 19.8138 5.15743 20.0118 5.12116C20.2202 5.08156 20.43 5.06132 20.6411 5.06132C20.8325 5.06132 21.0261 5.07408 21.2226 5.10004C21.419 5.126 21.5979 5.1766 21.7598 5.2514C21.9218 5.32664 22.0542 5.43092 22.1573 5.56512C22.2603 5.69888 22.3118 5.87576 22.3118 6.09664V7.9904C22.3118 8.15452 22.3215 8.3116 22.3413 8.46208C22.3606 8.61212 22.3951 8.72476 22.4443 8.8H21.3845L21.3366 8.62752L21.3109 8.448C21.1439 8.61212 20.9475 8.7274 20.7221 8.79296C20.4978 8.85816 20.2647 8.89137 20.0302 8.89152C19.8587 8.8928 19.6878 8.87148 19.5224 8.82816C19.3727 8.78916 19.2327 8.72216 19.1102 8.63104C18.9916 8.5407 18.897 8.42474 18.8342 8.29268C18.768 8.15672 18.7349 7.9948 18.7349 7.80692C18.7349 7.60012 18.7731 7.43028 18.849 7.29652C18.9194 7.16906 19.0202 7.0593 19.1434 6.9762C19.2634 6.89612 19.401 6.83672 19.5555 6.79668C19.7101 6.75664 19.866 6.72496 20.0229 6.70164C20.1797 6.67788 20.3343 6.65896 20.4866 6.64488C20.6388 6.63124 20.7736 6.61012 20.8914 6.58152C20.993 6.56084 21.0885 6.51875 21.171 6.45832C21.2396 6.40464 21.2713 6.32588 21.2667 6.22248C21.2667 6.11468 21.2483 6.02932 21.2115 5.96552C21.1771 5.90459 21.1263 5.85356 21.0643 5.81768C20.9987 5.7811 20.9262 5.75733 20.8509 5.74772C20.7644 5.73553 20.677 5.72964 20.5896 5.73012C20.3835 5.73012 20.2216 5.77236 20.1038 5.8564C19.9861 5.94088 19.9175 6.08212 19.8978 6.27924H18.8526C18.8674 6.04472 18.9285 5.85024 19.0366 5.69536ZM21.1011 7.10688C21.0313 7.12893 20.96 7.14657 20.8877 7.15968L20.6485 7.19444L20.3982 7.22964C20.3198 7.24374 20.2424 7.26255 20.1664 7.28596C20.09 7.30972 20.0238 7.3414 19.9677 7.38144C19.9116 7.42148 19.866 7.47164 19.8315 7.5328C19.797 7.59396 19.78 7.6714 19.78 7.76512C19.78 7.854 19.797 7.92924 19.8315 7.9904C19.866 8.05156 19.9125 8.09952 19.9714 8.13472C20.0302 8.16992 20.0988 8.19456 20.1774 8.20864C20.2556 8.22272 20.3371 8.22976 20.4203 8.22976C20.6264 8.22976 20.786 8.1972 20.8987 8.1312C21.0119 8.06564 21.0951 7.98688 21.149 7.89536C21.2032 7.80384 21.2359 7.711 21.2483 7.61684C21.2603 7.52312 21.2667 7.44788 21.2667 7.39156V7.01844C21.2185 7.0585 21.1621 7.0886 21.1011 7.10688ZM24.115 5.16032V5.83616H24.1298C24.1785 5.72352 24.2448 5.61924 24.3285 5.52288C24.4122 5.42696 24.5079 5.34468 24.6155 5.27648C24.7232 5.20828 24.8386 5.15592 24.9614 5.11808C25.0843 5.08068 25.2117 5.06176 25.3442 5.06176C25.4127 5.06176 25.4886 5.0732 25.5723 5.09696V6.02624L25.3957 6.00116L25.1965 5.99104C25.0051 5.99104 24.8432 6.0214 24.7107 6.08256C24.5783 6.14372 24.4711 6.22688 24.3906 6.33204C24.3096 6.43764 24.2517 6.56128 24.2176 6.70208C24.1825 6.85226 24.1653 7.00578 24.1666 7.15968V8.8H23.1214V5.16032H24.115ZM27.6695 5.81504C27.5029 5.81504 27.3631 5.85156 27.2499 5.92416C27.1372 5.99719 27.0429 6.0934 26.9739 6.20576C26.9031 6.32104 26.8525 6.44776 26.8231 6.58592C26.764 6.85417 26.764 7.13123 26.8231 7.39948C26.8525 7.53588 26.9003 7.65864 26.9666 7.76908C27.0328 7.87952 27.1221 7.96972 27.2352 8.04012C27.3479 8.11008 27.4855 8.14528 27.6474 8.14528C27.8976 8.14528 28.0904 8.07884 28.2251 7.94464C28.3604 7.81088 28.445 7.63136 28.4795 7.40608H29.4874C29.4188 7.88964 29.2224 8.25792 28.8986 8.51136C28.5752 8.7648 28.1603 8.89152 27.6552 8.89152C27.3871 8.89451 27.121 8.8479 26.8714 8.75424C26.6429 8.66886 26.4359 8.53809 26.2642 8.37056C26.0943 8.20155 25.9617 8.00166 25.8741 7.78272C25.7785 7.54345 25.7309 7.28909 25.7338 7.03296C25.7338 6.75092 25.777 6.48956 25.8626 6.248C25.9486 6.006 26.0746 5.79744 26.2416 5.62144C26.4081 5.44544 26.6119 5.30816 26.8525 5.20916C27.0926 5.1106 27.3677 5.06132 27.6768 5.06132C27.9022 5.06132 28.1193 5.08948 28.3282 5.1458C28.5366 5.20212 28.7229 5.28748 28.8875 5.40276C29.0518 5.5176 29.1852 5.66104 29.2887 5.8322C29.3917 6.0038 29.4506 6.20664 29.4653 6.44116H28.4423C28.3742 6.0236 28.1161 5.81504 27.6695 5.81504ZM31.1213 3.77344V5.6672H31.1434C31.2759 5.45644 31.4451 5.30244 31.6512 5.20608C31.8381 5.11422 32.0447 5.06483 32.2548 5.06176C32.5344 5.06176 32.7635 5.09828 32.9429 5.17088C33.1223 5.24392 33.2631 5.34468 33.3661 5.4736C33.4696 5.60252 33.5418 5.7596 33.5832 5.94484C33.6251 6.13052 33.6462 6.336 33.6462 6.56084V8.8H32.6011V6.74432C32.6011 6.4438 32.5524 6.21984 32.4544 6.072C32.3559 5.92416 32.1816 5.85024 31.9314 5.85024C31.6471 5.85024 31.441 5.93164 31.3131 6.09312C31.1857 6.25504 31.1218 6.52168 31.1218 6.89216V8.8H30.0767V3.77344H31.1213Z" fill="white"/>
<path d="M12.3142 24.2198C12.5396 23.5251 12.8782 22.9179 13.3299 22.3982C13.7811 21.8786 14.3488 21.4738 15.0333 21.1834C15.7173 20.8939 16.5039 20.7487 17.3926 20.7487C18.0697 20.7487 18.7151 20.8494 19.3287 21.0518C19.9424 21.2542 20.482 21.5446 20.9475 21.9226C21.413 22.3001 21.7833 22.7661 22.0584 23.3191C22.3335 23.8727 22.471 24.4931 22.471 25.1812C22.471 25.8962 22.3509 26.5105 22.1113 27.0231C21.8775 27.527 21.5555 27.989 21.1591 28.3893C20.7534 28.7956 20.3029 29.1587 19.8154 29.4721C19.3138 29.7964 18.8094 30.1168 18.3025 30.4335C17.7925 30.7521 17.2982 31.0931 16.8213 31.4556C16.3388 31.8227 15.9116 32.2516 15.5517 32.7303H22.5556V35.2H11.6794C11.6794 34.3772 11.8027 33.6618 12.0497 33.0546C12.2876 32.4617 12.6273 31.9111 13.0548 31.4253C13.4968 30.9297 13.9974 30.4848 14.5466 30.0995C15.1424 29.6782 15.7455 29.2664 16.3558 28.8645C16.6801 28.6489 17.026 28.4297 17.3926 28.2071C17.7506 27.9907 18.0871 27.7433 18.3977 27.4679C18.6974 27.2022 18.9541 26.8954 19.1595 26.5575C19.3637 26.2201 19.4663 25.8355 19.4663 25.4039C19.4663 24.7157 19.2579 24.1793 18.8421 23.7948C18.4258 23.4102 17.8931 23.2175 17.2445 23.2175C16.807 23.2175 16.4367 23.3161 16.1336 23.511C15.8293 23.7076 15.5789 23.9714 15.4036 24.2801C15.2157 24.6091 15.0835 24.9644 15.0121 25.333C14.9352 25.7098 14.8963 26.0927 14.8957 26.4766H12.018C11.9894 25.667 12.0883 24.915 12.3142 24.2198ZM23.3386 31.9211V29.2904L29.7717 21.032H32.459V29.5531H34.4264V31.9211H32.459V35.2H29.6024V31.9211H23.3386ZM29.5384 24.6347L25.7089 29.5531H29.6024V24.6347H29.5384Z" fill="#35495E"/>
</svg>
