<svg width="48" height="52" viewBox="0 0 48 52" fill="none" xmlns="http://www.w3.org/2000/svg">
<path d="M12.4903 12.9135L10.4066 13.0174L10.8257 44.6622C10.8257 49.9723 18.298 52 25.3109 52V12.9135H12.4903Z" fill="#E0E0E0"/>
<path d="M38.1315 12.9135L40.2151 13.0174L39.796 44.6622C39.796 49.9723 32.3237 52 25.3109 52V12.9135H38.1315Z" fill="#E0E0E0"/>
<path d="M25.3109 9.32358C21.5868 9.32358 18.1006 9.76401 15.4969 10.5618C13.2601 11.2474 11.926 12.1448 11.926 12.9634C11.926 13.7819 13.2601 14.6794 15.4969 15.365C18.1006 16.1628 21.5868 16.6032 25.3109 16.6032C29.0349 16.6032 32.5212 16.1628 35.1248 15.365C37.3617 14.6794 38.6957 13.7819 38.6957 12.9634C38.6957 12.1448 37.3617 11.2474 35.1248 10.5618C32.5212 9.76401 29.0349 9.32358 25.3109 9.32358Z" fill="#FAFAFA"/>
<path d="M13.3891 25.0213L13.5301 42.6262C13.643 43.6151 14.4289 44.5666 15.501 45.0736C17.4194 45.9835 21.1757 46.8768 25.3351 46.8768C29.305 46.8768 32.6824 46.0625 34.6452 45.2065C35.8866 44.6664 36.8901 43.5777 37.0392 42.6387L37.2287 25.0213" fill="#FACC30"/>
<path d="M25.3109 28.0545C31.8951 28.0545 37.2327 26.6965 37.2327 25.0213C37.2327 23.3462 31.8951 21.9882 25.3109 21.9882C18.7266 21.9882 13.3891 23.3462 13.3891 25.0213C13.3891 26.6965 18.7266 28.0545 25.3109 28.0545Z" fill="#E4A324"/>
<path d="M25.3109 17.3677C16.8108 17.3677 10.4026 15.4772 10.4026 12.9675C10.4026 10.4579 16.8108 8.56735 25.3109 8.56735C33.8109 8.56735 40.2192 10.4579 40.2192 12.9675C40.2151 15.473 33.8069 17.3677 25.3109 17.3677ZM25.3109 9.32357C21.5868 9.32357 18.1005 9.764 15.4969 10.5618C13.2601 11.2474 11.926 12.1448 11.926 12.9634C11.926 13.7819 13.2601 14.6794 15.4969 15.365C18.1005 16.1628 21.5868 16.6032 25.3109 16.6032C29.0349 16.6032 32.5212 16.1628 35.1248 15.365C37.3617 14.6794 38.6957 13.7819 38.6957 12.9634C38.6957 12.1448 37.3617 11.2474 35.1248 10.5618C32.5212 9.764 29.0349 9.32357 25.3109 9.32357Z" fill="#CECFD0"/>
<path d="M30.7398 44.3796C31.0536 44.3796 31.308 44.1173 31.308 43.7938C31.308 43.4702 31.0536 43.2079 30.7398 43.2079C30.4259 43.2079 30.1715 43.4702 30.1715 43.7938C30.1715 44.1173 30.4259 44.3796 30.7398 44.3796Z" fill="#E4A324"/>
<path d="M32.0013 42.5847C32.2172 42.5847 32.3922 42.4042 32.3922 42.1816C32.3922 41.959 32.2172 41.7786 32.0013 41.7786C31.7853 41.7786 31.6103 41.959 31.6103 42.1816C31.6103 42.4042 31.7853 42.5847 32.0013 42.5847Z" fill="#E4A324"/>
<path d="M29.4783 42.1401C29.8589 42.1401 30.1675 41.822 30.1675 41.4296C30.1675 41.0372 29.8589 40.7191 29.4783 40.7191C29.0976 40.7191 28.7891 41.0372 28.7891 41.4296C28.7891 41.822 29.0976 42.1401 29.4783 42.1401Z" fill="#E4A324"/>
<path d="M31.8763 41.4254C32.2681 41.4254 32.5857 41.098 32.5857 40.6941C32.5857 40.2902 32.2681 39.9628 31.8763 39.9628C31.4846 39.9628 31.167 40.2902 31.167 40.6941C31.167 41.098 31.4846 41.4254 31.8763 41.4254Z" fill="#E4A324"/>
<path d="M29.5992 38.1512C29.913 38.1512 30.1674 37.8889 30.1674 37.5654C30.1674 37.2418 29.913 36.9795 29.5992 36.9795C29.2853 36.9795 29.0309 37.2418 29.0309 37.5654C29.0309 37.8889 29.2853 38.1512 29.5992 38.1512Z" fill="#E4A324"/>
<path d="M31.1025 38.3714C31.383 38.3714 31.6103 38.137 31.6103 37.8479C31.6103 37.5588 31.383 37.3244 31.1025 37.3244C30.822 37.3244 30.5947 37.5588 30.5947 37.8479C30.5947 38.137 30.822 38.3714 31.1025 38.3714Z" fill="#E4A324"/>
<path d="M33.2507 35.01C33.5311 35.01 33.7585 34.7756 33.7585 34.4865C33.7585 34.1973 33.5311 33.963 33.2507 33.963C32.9702 33.963 32.7428 34.1973 32.7428 34.4865C32.7428 34.7756 32.9702 35.01 33.2507 35.01Z" fill="#E4A324"/>
<path d="M28.39 32.0392C28.744 32.0392 29.0309 31.7434 29.0309 31.3785C29.0309 31.0137 28.744 30.7179 28.39 30.7179C28.0361 30.7179 27.7492 31.0137 27.7492 31.3785C27.7492 31.7434 28.0361 32.0392 28.39 32.0392Z" fill="#E4A324"/>
<path d="M31.6103 36.9754C32.0421 36.9754 32.3922 36.6145 32.3922 36.1693C32.3922 35.7241 32.0421 35.3632 31.6103 35.3632C31.1785 35.3632 30.8284 35.7241 30.8284 36.1693C30.8284 36.6145 31.1785 36.9754 31.6103 36.9754Z" fill="#E4A324"/>
<path d="M29.5589 34.4823C29.984 34.4823 30.3287 34.127 30.3287 33.6887C30.3287 33.2504 29.984 32.8951 29.5589 32.8951C29.1337 32.8951 28.7891 33.2504 28.7891 33.6887C28.7891 34.127 29.1337 34.4823 29.5589 34.4823Z" fill="#E4A324"/>
<path d="M32.1786 33.3106C32.4924 33.3106 32.7469 33.0483 32.7469 32.7247C32.7469 32.4012 32.4924 32.1389 32.1786 32.1389C31.8647 32.1389 31.6103 32.4012 31.6103 32.7247C31.6103 33.0483 31.8647 33.3106 32.1786 33.3106Z" fill="#E4A324"/>
<path d="M12.8772 16.7403L10.3945 14.8872C10.3945 14.8872 9.3869 16.0838 5.90467 16.7071C2.9222 17.2389 -0.285964 18.9924 0.0203432 29.2054C0.286347 38.1138 1.45112 40.1415 6.45683 41.3589C10.8177 42.4226 10.8096 43.665 10.8096 43.665L12.9941 42.0778V31.0586L12.8772 16.7403ZM7.4483 36.8216C4.65123 36.8216 4.65123 33.5516 4.65123 29.5171C4.65123 25.4825 4.65123 22.2125 7.4483 22.2125C10.2454 22.2125 10.2454 25.4825 10.2454 29.5171C10.2454 33.5516 10.0721 36.8216 7.4483 36.8216Z" fill="#E0E0E0"/>
<path d="M36.878 46.1539C36.6402 46.8644 35.8019 48.1899 33.424 49.1414C31.961 49.7272 29.8088 50.2466 28.0354 50.0638C27.6565 50.0264 27.7734 49.6441 28.0314 49.5943C29.5105 49.3242 30.9453 48.9128 32.6502 48.2065C34.8669 47.2841 36.35 46.0583 36.5596 45.9087C36.9143 45.6511 36.9183 46.0334 36.878 46.1539Z" fill="white"/>
<path d="M18.8059 20.5588C18.1812 20.0685 17.6975 19.6364 16.835 19.2168C16.4239 19.0173 15.775 18.9841 15.1906 19.0048L15.2793 30.506C15.2914 30.6265 15.3962 30.9464 15.7992 31.1209C16.1337 31.2664 18.0482 31.7525 19.4951 32.0101C19.8739 32.0558 20.1037 31.873 20.1117 31.6777L20.156 21.2527C19.6361 21.0616 19.1162 20.7998 18.8059 20.5588Z" fill="white"/>
<path d="M6.04574 18.1614C4.80439 18.3774 3.98219 18.8636 3.16 19.8483C2.59978 20.5214 1.8461 21.9965 1.90253 23.351C1.90656 23.4549 1.95895 24.0241 2.18868 23.9992C2.54336 23.9618 2.64008 23.5131 2.67233 23.3219C2.77309 22.6945 3.44616 21.0782 3.89353 20.5505C4.75199 19.5367 5.89662 19.2915 6.36414 19.1253C6.6382 19.0256 7.35158 18.6683 7.29918 18.4107C7.20648 17.991 6.30368 18.1157 6.04574 18.1614Z" fill="white"/>
<path d="M15.2027 1.88192C14.7594 2.22263 14.3483 2.62151 13.8163 2.78771C12.9256 3.0661 11.9744 2.68799 11.0474 3.07026C8.42768 4.15057 7.19439 6.38182 8.17377 9.08676C8.50023 9.99255 8.15765 10.4247 7.92792 11.318C7.29918 13.7695 8.95969 16.8567 11.5794 17.1517C13.1472 17.3262 14.6586 16.5658 16.1902 16.732C17.4799 16.8733 18.1449 18.1073 19.2855 18.5686C20.3616 19.0007 21.5707 19.1129 22.7193 19.0796C24.263 19.0298 26.2822 17.7957 27.6928 18.9384C29.8773 20.7084 28.4546 24.3565 31.0703 25.9604C32.1423 26.6169 33.5973 26.459 34.6129 25.7983C36.5636 24.531 36.0921 21.9092 36.6604 19.9605C36.8055 19.4411 37.011 18.9674 37.4584 18.6475C37.9057 18.3276 38.4015 18.4148 38.8932 18.2195C39.5542 17.9536 40.1789 17.588 40.6827 17.0686C41.2711 16.4578 40.8439 15.3235 41.8273 15.124C42.1296 15.0617 42.5245 14.8872 42.7583 14.7044C44.0279 13.7155 44.306 11.7252 43.3911 10.3914C43.0525 9.90114 42.7946 9.76403 42.722 9.15739C42.6535 8.60892 42.7744 8.1311 42.5689 7.57017C42.0731 6.18654 40.8479 5.31398 39.4816 4.93587C39.2277 4.86523 38.9577 4.80706 38.6957 4.7572C38.2564 4.6741 37.8896 4.65748 37.5551 4.32508C37.3818 4.15472 37.2488 3.90542 37.1239 3.69767C36.7773 3.12843 36.3138 2.67968 35.8019 2.27249C34.2825 1.06337 32.2592 0.784985 30.3811 1.05091C29.8692 1.12154 29.4218 1.30021 28.9382 1.48303C27.7251 1.93593 27.2535 1.11323 26.2822 0.585543C25.0731 -0.0709531 23.6262 -0.0875732 22.3002 0.111869C21.5223 0.22821 20.946 0.701884 20.2487 1.0052C19.4386 1.35838 18.9832 1.10077 18.1731 1.0426C17.4517 0.992737 16.6819 1.17971 16.0048 1.41655C15.7105 1.51627 15.4486 1.69078 15.2027 1.88192Z" fill="#E9E2CF"/>
<path d="M43.3226 7.79868C43.0646 8.97456 42.1779 9.98423 41.0655 10.3582C39.9532 10.7321 38.6594 10.4662 37.7768 9.67261C37.3818 10.2294 36.3097 9.68923 35.9994 9.90529C35.689 10.1255 35.0724 12.1822 33.9439 12.282C33.2587 13.1338 32.1101 13.5617 31.0541 13.3581C29.9982 13.1545 29.2123 11.1809 28.7407 11.2723C28.2691 11.3637 28.0031 12.0701 27.4832 12.1075C27.2253 12.1282 26.9552 12.0825 26.7134 12.1781C26.2177 12.3734 26.0686 13.0423 25.6333 13.3581C25.2182 13.6614 24.6459 13.5742 24.1622 13.7445C23.8519 13.8526 23.5859 14.0645 23.3078 14.239C22.1994 14.9412 20.7807 15.1032 19.5515 14.6753C18.3182 14.2431 17.2904 13.2293 16.8229 11.9745C16.1055 12.818 14.2515 13.4329 13.6833 13.2626C13.115 13.0922 12.5628 14.2722 11.8132 14.426C11.0152 14.588 10.197 14.7542 9.39496 14.6088C8.59292 14.4634 7.80297 13.9398 7.57324 13.1379C7.26693 14.2182 6.78732 15.2487 6.16664 16.1752L14.7755 20.2887C15.1664 20.4757 15.5695 20.671 15.8718 20.9826C16.5811 21.7139 16.6254 22.923 17.3146 23.6709C18.0481 24.4687 19.2492 24.4978 20.3132 24.4729L23.3803 24.3981C23.8559 24.3856 24.3557 24.3814 24.7789 24.6017C25.9517 25.2208 25.8308 27.0864 26.8061 28.0005C27.5558 28.6985 28.6964 28.6237 29.6959 28.5032C32.5172 28.1625 35.3384 27.7927 38.1516 27.398C38.4136 27.3606 38.6836 27.3232 38.9174 27.1944C39.2398 27.0157 39.4534 26.6958 39.667 26.3883C41.3556 23.921 43.384 21.7206 45.6884 19.8566C46.2728 19.3871 46.8894 18.9176 47.2481 18.2486C47.5705 17.6503 47.6512 16.9481 47.7237 16.2667L47.9655 14.0811C47.9978 13.7778 48.03 13.462 47.9494 13.167C47.8325 12.7598 47.5101 12.4523 47.2159 12.1532C46.4607 11.3724 45.826 10.477 45.3337 9.49809C45.0999 9.03273 44.8944 8.53828 44.5397 8.16017C44.185 7.78206 43.6369 7.54523 43.1613 7.72805" fill="#E2D2BA"/>
<path d="M30.2521 18.2278C31.0622 18.9591 31.1831 20.2264 31.2476 21.3483C31.3161 22.5158 31.6627 24.6391 32.4285 24.5061C32.9484 24.3357 33.0532 23.6335 33.0613 23.0726C33.0814 21.6848 33.0935 20.243 32.5333 18.9799C32.2874 18.4273 31.9166 17.9037 31.3846 17.6461C30.901 17.4135 29.5951 17.3553 30.2521 18.2278Z" fill="#F6EEDA"/>
</svg>
