<svg width="15" height="15" viewBox="0 0 15 15" fill="none" xmlns="http://www.w3.org/2000/svg">
<path d="M9.9 7.5C9.9 7.97468 9.75924 8.43869 9.49553 8.83337C9.23181 9.22805 8.85698 9.53566 8.41844 9.71731C7.9799 9.89896 7.49734 9.94649 7.03178 9.85389C6.56623 9.76128 6.13859 9.5327 5.80294 9.19706C5.4673 8.86141 5.23872 8.43377 5.14612 7.96822C5.05351 7.50266 5.10104 7.0201 5.28269 6.58156C5.46434 6.14302 5.77195 5.76819 6.16663 5.50447C6.56131 5.24076 7.02533 5.1 7.5 5.1C8.13629 5.10073 8.74632 5.35383 9.19625 5.80376C9.64617 6.25368 9.89927 6.86371 9.9 7.5ZM15 4.2V10.8C14.9987 11.9135 14.5558 12.9811 13.7684 13.7684C12.9811 14.5558 11.9135 14.9987 10.8 15H4.2C3.08648 14.9987 2.01893 14.5558 1.23155 13.7684C0.444177 12.9811 0.00127042 11.9135 0 10.8V4.2C0.00127042 3.08648 0.444177 2.01893 1.23155 1.23155C2.01893 0.444177 3.08648 0.00127042 4.2 0H10.8C11.9135 0.00127042 12.9811 0.444177 13.7684 1.23155C14.5558 2.01893 14.9987 3.08648 15 4.2ZM11.1 7.5C11.1 6.78799 10.8889 6.09196 10.4933 5.49995C10.0977 4.90793 9.53547 4.44651 8.87766 4.17403C8.21985 3.90156 7.49601 3.83027 6.79768 3.96917C6.09934 4.10808 5.45788 4.45095 4.95442 4.95442C4.45095 5.45788 4.10808 6.09934 3.96917 6.79768C3.83027 7.49601 3.90156 8.21985 4.17403 8.87766C4.44651 9.53547 4.90793 10.0977 5.49995 10.4933C6.09196 10.8889 6.78799 11.1 7.5 11.1C8.45445 11.0989 9.3695 10.7193 10.0444 10.0444C10.7193 9.3695 11.0989 8.45445 11.1 7.5ZM12.3 3.6C12.3 3.422 12.2472 3.24799 12.1483 3.09999C12.0494 2.95198 11.9089 2.83663 11.7444 2.76851C11.58 2.70039 11.399 2.68257 11.2244 2.71729C11.0498 2.75202 10.8895 2.83774 10.7636 2.9636C10.6377 3.08947 10.552 3.24984 10.5173 3.42442C10.4826 3.599 10.5004 3.77996 10.5685 3.94442C10.6366 4.10887 10.752 4.24943 10.9 4.34832C11.048 4.44722 11.222 4.5 11.4 4.5C11.6387 4.5 11.8676 4.40518 12.0364 4.2364C12.2052 4.06761 12.3 3.8387 12.3 3.6Z" fill="#FCAE67"/>
</svg>
