<svg width="70" height="49" viewBox="0 0 70 49" fill="none" xmlns="http://www.w3.org/2000/svg">
<path d="M8.96771 7.89838C9.02026 7.74698 8.91516 5.09158 10.3983 3.00103C11.8814 0.910484 13.8258 0.601852 15.2623 0.345629C17.0023 0.0369966 21.2006 -0.469626 21.8663 0.95707C22.532 2.38377 22.0181 3.15243 23.0925 3.56006C24.1669 3.96769 22.2225 6.36687 22.2225 6.36687L8.96771 7.89838Z" fill="#464C4F"/>
<path d="M60.4979 7.84695C60.4979 7.84695 60.9183 5.26725 59.441 3.5261C57.2221 0.899815 53.7478 0.0496216 50.4604 0.0496216C49.4035 0.0496216 48.1365 0.253435 47.7277 1.51126C47.4942 2.23916 47.3307 3.1243 46.8168 3.22329C46.3088 3.32811 57.1696 6.67648 60.4979 7.84695Z" fill="#464C4F"/>
<path d="M20.2956 34.662C18.5497 36.013 16.2315 45.3302 12.6055 47.7935C8.97937 50.2567 0.763743 48.9406 0.144797 43.9152C-0.39824 39.4837 0.58857 30.1665 3.06435 20.6455C5.54014 11.1245 7.44369 6.40764 13.2302 4.86447C17.8723 3.62412 26.9697 2.75063 35.8042 2.83798C44.6447 2.92533 52.3815 2.92533 57.2455 4.77712C61.6073 6.43675 64.5794 10.9498 66.6172 19.7603C68.6493 28.5767 70.22 39.1751 69.9747 42.6807C69.6185 47.7935 62.3722 51.0545 56.9827 47.0889C52.691 43.9327 51.856 35.8966 49.6488 34.7494C47.4416 33.6022 21.8838 33.4275 20.2956 34.662Z" fill="#5E6268"/>
<path d="M51.9494 32.2629C51.529 32.787 52.4983 33.5673 53.1873 35.2735C53.8763 36.9797 55.6514 42.6283 57.3739 44.2064C59.5227 46.1688 61.1985 45.8019 61.5255 45.1847C61.8525 44.5674 59.9957 42.9718 57.8119 39.4138C55.628 35.8558 52.8253 31.1739 51.9494 32.2629Z" fill="#9E9E9E"/>
<path d="M3.64243 30.8128C2.99429 30.9293 1.27759 39.5244 2.55052 43.1581C3.61324 46.1862 7.6831 46.3551 9.21295 45.9184C12.261 45.0507 13.2186 42.1041 12.5237 41.778C11.8347 41.4519 9.41732 43.7579 7.13422 42.6865C4.58837 41.4869 4.62341 38.1094 4.29642 34.697C4.00446 31.6223 4.26138 30.7022 3.64243 30.8128Z" fill="#9E9E9E"/>
<path d="M19.6941 11.7534C19.4547 11.7534 17.3527 11.7417 17.3527 11.7417L17.3643 9.20861C17.3643 9.20861 17.4111 7.16465 15.2155 7.21123C13.2478 7.252 13.2886 8.88833 13.2886 9.20861C13.2886 9.52889 13.277 11.7243 13.277 11.7243C13.277 11.7243 11.0464 11.701 10.6318 11.7126C10.2173 11.7243 8.66406 11.7475 8.66406 13.7449C8.66406 15.6316 10.2698 15.7656 10.6318 15.7772C10.9939 15.7889 13.2653 15.7889 13.2653 15.7889C13.2653 15.7889 13.2478 17.9027 13.2536 18.2463C13.2594 18.5899 13.3237 20.2087 15.2915 20.2087C17.4402 20.2087 17.3293 18.2463 17.3293 18.2463L17.341 15.8063C17.341 15.8063 19.3496 15.8238 19.7 15.818C20.2021 15.8063 21.6794 15.6724 21.7028 13.675C21.7203 11.701 19.9394 11.7534 19.6941 11.7534Z" fill="#9E9E9E"/>
<path d="M25.761 28.6466C28.515 28.6466 30.7476 26.4201 30.7476 23.6736C30.7476 20.927 28.515 18.7005 25.761 18.7005C23.0069 18.7005 20.7744 20.927 20.7744 23.6736C20.7744 26.4201 23.0069 28.6466 25.761 28.6466Z" fill="#AFAFAF"/>
<path d="M42.8988 28.7223C45.6528 28.7223 47.8854 26.4958 47.8854 23.7493C47.8854 21.0027 45.6528 18.7762 42.8988 18.7762C40.1448 18.7762 37.9122 21.0027 37.9122 23.7493C37.9122 26.4958 40.1448 28.7223 42.8988 28.7223Z" fill="#AFAFAF"/>
<path d="M25.7551 26.8763C27.5965 26.8763 29.0893 25.3877 29.0893 23.5513C29.0893 21.7149 27.5965 20.2262 25.7551 20.2262C23.9137 20.2262 22.421 21.7149 22.421 23.5513C22.421 25.3877 23.9137 26.8763 25.7551 26.8763Z" fill="#C8C8C8"/>
<path d="M42.8988 26.987C44.7402 26.987 46.2329 25.4983 46.2329 23.6619C46.2329 21.8255 44.7402 20.3369 42.8988 20.3369C41.0574 20.3369 39.5646 21.8255 39.5646 23.6619C39.5646 25.4983 41.0574 26.987 42.8988 26.987Z" fill="#C8C8C8"/>
<path d="M47.6109 16.5983C49.0943 16.5983 50.2969 15.399 50.2969 13.9196C50.2969 12.4402 49.0943 11.2409 47.6109 11.2409C46.1275 11.2409 44.9249 12.4402 44.9249 13.9196C44.9249 15.399 46.1275 16.5983 47.6109 16.5983Z" fill="#2086FA"/>
<path d="M52.9362 21.7286C54.4196 21.7286 55.6222 20.5293 55.6222 19.0499C55.6222 17.5705 54.4196 16.3712 52.9362 16.3712C51.4528 16.3712 50.2502 17.5705 50.2502 19.0499C50.2502 20.5293 51.4528 21.7286 52.9362 21.7286Z" fill="#06AC48"/>
<path d="M58.2965 17.0234C59.78 17.0234 60.9825 15.8241 60.9825 14.3447C60.9825 12.8653 59.78 11.666 58.2965 11.666C56.8131 11.666 55.6105 12.8653 55.6105 14.3447C55.6105 15.8241 56.8131 17.0234 58.2965 17.0234Z" fill="#F72E26"/>
<path d="M52.9829 11.5554C54.4663 11.5554 55.6689 10.3561 55.6689 8.87669C55.6689 7.39729 54.4663 6.198 52.9829 6.198C51.4995 6.198 50.2969 7.39729 50.2969 8.87669C50.2969 10.3561 51.4995 11.5554 52.9829 11.5554Z" fill="#FDB700"/>
</svg>
