<svg width="32" height="32" viewBox="0 0 32 32" fill="none" xmlns="http://www.w3.org/2000/svg">
<path d="M19.11 16.578C18.37 16.776 18.287 16.818 17.558 17.026C16.772 16.578 16.079 16.323 15.428 16.406C15.506 16 15.631 15.708 15.756 15.343C17.136 15.14 18.162 15.875 19.11 16.578ZM26.188 26.177C25.418 26.9461 24.5636 27.6257 23.641 28.203H23.636L18.698 22.052L22.792 22.5C22.792 22.5 24.756 22.703 25.203 22.5C25.614 22.344 27.818 19.234 27.818 19.234C27.818 19.234 21.474 15.224 19.308 13.015C19.558 9.291 19.022 4.338 19.022 4.374C17.433 5.968 17.225 6.218 15.631 7.692C14.938 5.442 14.605 4.671 13.912 2.416C11.823 4.135 10.23 7.036 9.084 10.437C8.829 10.723 8.584 11.015 8.35 11.312C8.204 11.52 8.043 11.729 7.892 11.947C7.585 12.379 7.293 12.848 7.012 13.322C6.809 13.666 6.611 14.015 6.423 14.374C6.34 14.52 6.256 14.681 6.173 14.838C4.959 17.223 3.939 19.89 3.058 22.312C2.09955 20.3455 1.60097 18.1867 1.6 15.999C1.6 12.181 3.121 8.515 5.819 5.811C8.51888 3.11322 12.1793 1.59755 15.996 1.597C19.8161 1.59672 23.4802 3.11229 26.184 5.811C28.8805 8.51573 30.3939 12.1797 30.392 15.999C30.3923 19.8137 28.881 23.4732 26.189 26.176L26.188 26.177ZM15.995 8.922C17.104 7.854 17.261 7.693 18.328 6.672C18.411 8.714 18.37 9.781 18.245 12.271C17.63 11.662 16.406 10.88 16.406 10.88C16.406 10.88 16.161 9.453 15.995 8.922ZM21.11 29.542C12.287 32.73 5.912 26.854 4.553 24.802C4.558 24.786 4.558 24.766 4.558 24.75C5.787 19.568 7.303 13.37 9.74 11.536C11.011 9.328 11.381 6.052 13.662 4.338C14.24 6.052 15.136 9.614 15.756 11.328C18.454 14.031 22.537 17.391 25.282 18.786C25.568 18.942 25.933 20.093 25.933 20.093L24.834 21.473L13.058 20.291C12.7931 20.266 12.5271 20.254 12.261 20.255C11.506 20.255 10.73 20.354 9.818 20.495C10.396 19.068 11.62 17.917 11.62 17.917C11.62 17.917 10.479 17.224 9.615 17.11C9.86 16.532 10.521 15.792 10.678 15.589C10.355 15.709 7.98 16.777 7.735 17.678C8.876 17.959 9.693 18.324 9.693 18.324C9.693 18.324 8.427 19.6 8.188 21.808C8.188 21.808 11.948 21.235 14.771 21.605C14.854 21.641 14.896 21.641 14.938 21.641L16.407 21.683L21.121 29.532L21.1202 29.5358L21.1181 29.5391L21.1148 29.5412L21.11 29.542ZM27.308 4.688C24.308 1.688 20.24 0.006 15.995 0C11.7522 0.00392939 7.68399 1.68975 4.682 4.688C1.692 7.688 0 11.756 0 16.001C0 20.246 1.693 24.314 4.682 27.303C7.677 30.313 11.75 32.001 15.995 32.001C20.24 32.001 24.313 30.313 27.308 27.303C30.313 24.313 31.99 20.246 31.99 16.001C31.99 11.756 30.313 7.688 27.308 4.688Z" fill="#FCAE67"/>
</svg>
