<svg width="18" height="15" viewBox="0 0 18 15" fill="none" xmlns="http://www.w3.org/2000/svg">
<path d="M18 1.77576C17.326 2.08193 16.6111 2.2828 15.8791 2.37168C16.6502 1.89859 17.2272 1.15415 17.5026 0.277105C16.7778 0.7183 15.9848 1.02898 15.1577 1.19567C14.8122 0.817749 14.3947 0.516623 13.931 0.310951C13.4674 0.105279 12.9675 -0.00055711 12.4623 2.20535e-06C10.423 2.20535e-06 8.7694 1.69522 8.7694 3.78691C8.7694 4.08343 8.80213 4.37276 8.86524 4.6501C5.79601 4.49214 3.07508 2.98437 1.25364 0.692999C0.925227 1.27095 0.752657 1.92809 0.753633 2.597C0.753149 3.22049 0.902859 3.83444 1.18946 4.38431C1.47606 4.93418 1.89068 5.40293 2.39648 5.74893C1.81015 5.72983 1.23674 5.56744 0.723946 5.27527C0.723478 5.29109 0.723478 5.30667 0.723478 5.32297C0.723478 7.15722 1.99629 8.68775 3.68542 9.03605C3.14152 9.18704 2.57126 9.20917 2.01779 9.10077C2.48764 10.6049 3.85138 11.7002 5.46735 11.7309C4.15922 12.7836 2.54387 13.3545 0.881031 13.352C0.58299 13.352 0.289158 13.3343 0 13.299C1.68851 14.4116 3.65366 15.0021 5.66066 15C12.4532 15 16.1676 9.22997 16.1676 4.2263C16.1676 4.06234 16.1638 3.89862 16.1568 3.73586C16.8802 3.20032 17.5044 2.53652 18 1.77576Z" fill="#FCAE67"/>
</svg>
